# xmcd
#
# Track frame offsets:
# 150
# 12603
# 29348
# 48857
# 61929
# 79020
# 93261
# 122172
# 139869
#
# Disc length: 2002 seconds
#
#
# Revision: 0
# Processed by: cddbd v1.5.2PL0 Copyright (c) Steve Scherf et al.
# Submitted via: FreeRIP 2.95 
#
DISCID=7007d009
DTITLE=Michael L Tetrick Jr - Wanted Man
DYEAR=2005
DGENRE=Country
TTITLE0=I've Got Jesus
TTITLE1=Ponytails And Barbie Dolls
TTITLE2=What Happened To The USA
TTITLE3=If Jesus Was A Cowboy
TTITLE4=You're The One I'll Grow Old With
TTITLE5=I'm Blessed
TTITLE6=Little Things
TTITLE7=Those Were The Days
TTITLE8=Wanted Man
EXTD=
EXTT0=
EXTT1=
EXTT2=
EXTT3=
EXTT4=
EXTT5=
EXTT6=
EXTT7=
EXTT8=
PLAYORDER=
